# xmcd
#
# Track frame offsets:
#	150
#	17112
#	29887
#	47220
#	59632
#	72357
#	91632
#	106847
#	120095
#	135135
#
# Disc length: 2000 seconds
#
# Revision: 0
# Processed by: cddbd v1.5.1PL0 Copyright (c) Steve Scherf et al.
# Submitted via: EasyCDDAExtractor 8.1.4.1
#
DISCID=7e07ce0a
DTITLE=PANCHO BARRAZA CON MARIACHI - FORMAS DE VIVIR
DYEAR=2000
DGENRE=Instrumental
TTITLE0=Formas de Vivir
TTITLE1=Tienes Que Volver
TTITLE2=Angel de Amor
TTITLE3=Regresa Por Favor
TTITLE4=Amor Que Mientes
TTITLE5=Golondrina en Libertad
TTITLE6=Mi Dama
TTITLE7=Esperando un Bebe
TTITLE8=Si Por Amor
TTITLE9=Feliz Cumpleaños
EXTD=
EXTT0=
EXTT1=
EXTT2=
EXTT3=
EXTT4=
EXTT5=
EXTT6=
EXTT7=
EXTT8=
EXTT9=
PLAYORDER=
